<?xml version="1.0" standalone="no"?>
<!DOCTYPE svg PUBLIC "-//W3C//DTD SVG 20010904//EN"
 "http://www.w3.org/TR/2001/REC-SVG-20010904/DTD/svg10.dtd">
<svg version="1.0" xmlns="http://www.w3.org/2000/svg"
 width="1500.000000pt" height="1000.000000pt" viewBox="0 0 1500.000000 1000.000000"
 preserveAspectRatio="xMidYMid meet">

<g transform="translate(0.000000,1000.000000) scale(0.100000,-0.100000)"
fill="#000000" stroke="none">
<path d="M8727 9923 c-11 -189 -71 -797 -81 -823 -3 -8 -8 -33 -10 -55 -8 -74
-24 -150 -55 -270 -59 -223 -66 -272 -66 -500 0 -115 5 -255 12 -310 37 -301
44 -490 23 -590 -18 -88 -83 -214 -138 -270 -43 -42 -103 -76 -267 -151 -53
-24 -187 -54 -239 -54 -73 1 -127 15 -223 61 -46 22 -88 37 -93 34 -21 -13
-40 -80 -40 -139 0 -72 30 -204 54 -241 l17 -26 37 27 c20 16 43 34 51 42 29
29 88 60 143 76 70 20 144 20 284 1 304 -43 405 -94 515 -262 70 -108 92 -185
119 -418 35 -308 66 -477 104 -559 62 -135 131 -298 161 -380 18 -50 49 -131
68 -181 37 -95 67 -252 67 -351 0 -51 -20 -160 -37 -204 -4 -8 -7 -17 -8 -20
-21 -57 -30 -72 -46 -81 -10 -5 -19 -15 -19 -22 0 -17 -103 -67 -136 -67 -34
0 -86 -31 -79 -48 2 -7 -6 -18 -20 -24 -14 -6 -25 -18 -26 -27 0 -10 -2 -12
-6 -3 -2 6 -9 12 -15 12 -6 0 -7 -7 -4 -16 3 -8 1 -25 -6 -37 -10 -19 -14 -45
-19 -117 -1 -27 26 -90 38 -90 7 0 13 -6 13 -14 0 -8 8 -17 19 -21 10 -3 26
-14 36 -25 10 -11 26 -20 35 -20 20 0 70 -23 70 -32 0 -3 19 -9 43 -13 68 -10
79 -15 73 -32 -4 -11 -2 -13 9 -10 8 4 55 7 105 8 49 1 90 5 90 10 0 4 30 9
68 11 47 2 66 7 65 15 -3 13 8 17 38 14 9 -1 22 5 29 14 7 8 26 15 42 15 38 0
199 39 216 53 7 5 15 7 19 4 5 -6 55 20 88 45 44 33 68 57 58 58 -19 0 -16 26
4 46 12 12 18 33 18 66 0 32 4 48 13 48 17 0 16 77 -2 87 -7 4 -24 24 -37 44
-13 20 -40 60 -60 90 -117 175 -173 345 -214 654 -8 61 -26 182 -40 270 -37
229 -53 365 -66 570 -15 233 -15 565 1 630 37 156 48 487 21 630 -5 28 -18
104 -30 170 -11 66 -27 149 -36 185 -8 36 -19 94 -25 130 -6 36 -19 108 -30
160 -17 82 -46 263 -90 550 -6 41 -18 131 -25 200 -8 69 -23 177 -33 240 -62
357 -71 471 -76 925 -2 193 -7 358 -11 368 -6 15 -27 17 -230 17 l-223 0 -5
-77z"/>
<path d="M753 7801 c-143 -49 -292 -196 -358 -351 -22 -53 -72 -130 -84 -130
-5 0 -8 -25 -7 -54 2 -97 -29 -96 -147 3 -32 27 -81 63 -108 79 l-49 31 0
-186 c0 -204 -4 -184 87 -473 103 -330 182 -534 350 -915 44 -99 88 -202 98
-230 10 -27 40 -91 66 -140 40 -76 319 -671 319 -681 0 -1 16 -38 36 -81 20
-43 56 -122 81 -177 24 -54 53 -117 63 -140 24 -52 103 -226 240 -531 59 -132
125 -276 145 -320 213 -456 257 -573 235 -629 -10 -26 -18 -30 -190 -75 -41
-11 -131 -35 -200 -54 -69 -18 -165 -42 -215 -51 -183 -36 -331 -68 -370 -81
-85 -27 -201 -46 -226 -36 -9 3 -35 29 -57 57 -23 29 -64 65 -94 82 -29 17
-68 49 -87 70 -18 22 -51 48 -74 58 -23 10 -66 40 -95 66 -30 26 -60 48 -67
48 -7 0 -20 3 -29 6 -15 6 -16 -79 -16 -909 0 -723 3 -916 13 -920 9 -4 9 -6
0 -6 -16 -1 -17 -51 -2 -51 6 0 8 -9 4 -20 -6 -18 -2 -20 27 -18 18 1 39 6 46
11 18 14 24 4 32 -48 4 -29 3 -46 -4 -49 -6 -3 -5 -5 2 -5 8 -1 26 7 40 17 42
28 82 43 82 31 0 -6 6 -9 12 -6 7 2 12 11 10 19 -2 13 9 15 70 11 53 -3 69 -1
58 7 -13 9 -13 11 0 20 11 8 7 9 -15 4 -16 -3 -36 -7 -43 -10 -7 -2 -12 5 -12
16 0 18 -5 20 -43 14 -23 -4 -52 -11 -65 -15 -17 -7 -22 -5 -22 7 0 10 -7 14
-22 12 -11 -2 -23 3 -25 9 -5 14 32 31 82 40 95 16 98 16 92 -1 -4 -9 -2 -16
3 -16 5 0 12 10 15 23 5 19 18 26 81 41 58 13 79 14 95 5 17 -8 31 -8 61 0 45
14 108 5 108 -15 0 -8 10 -14 23 -14 16 0 18 3 9 9 -11 6 -10 10 4 15 9 4 22
2 28 -4 5 -5 22 -10 37 -10 15 0 29 -6 32 -12 3 -10 10 -8 25 5 14 13 21 15
24 6 4 -13 68 -19 68 -6 0 4 21 8 48 7 164 -3 295 2 272 12 -24 9 -25 10 -5
24 16 12 18 18 7 34 -10 16 -9 21 8 30 23 12 53 0 68 -26 6 -11 32 -18 81 -24
66 -7 109 -20 67 -20 -9 0 -15 -4 -12 -9 3 -4 18 -6 33 -3 24 5 26 3 15 -10
-10 -13 -8 -16 20 -22 18 -4 60 -9 94 -12 80 -7 160 -28 156 -43 -2 -13 14
-15 22 -2 3 5 14 11 25 14 14 3 18 1 14 -9 -3 -8 -13 -14 -23 -14 -22 0 -39
-22 -22 -28 8 -2 3 -11 -10 -23 -13 -10 -18 -18 -11 -19 6 0 15 5 19 11 3 6
17 9 30 6 13 -2 24 -1 24 3 0 4 17 11 38 15 20 3 48 9 62 11 20 4 18 2 -8 -10
-18 -8 -36 -25 -42 -38 -5 -13 -9 -17 -9 -10 -2 24 -21 12 -21 -13 0 -18 -7
-28 -25 -35 -30 -11 -31 -24 -5 -50 11 -11 20 -22 20 -24 0 -2 -15 -9 -32 -17
-31 -12 -68 -41 -68 -54 0 -3 7 -5 16 -5 12 0 15 -6 11 -22 -10 -38 18 -58 84
-58 32 0 60 4 63 9 8 12 66 20 72 9 3 -4 14 -8 25 -8 11 0 27 -7 35 -15 8 -8
40 -19 72 -25 48 -10 58 -15 59 -33 1 -12 -5 -29 -14 -39 -14 -16 -15 -20 -1
-36 9 -9 13 -23 11 -29 -4 -10 20 -13 97 -13 87 0 104 3 122 20 16 15 24 17
29 8 9 -14 11 -13 26 22 l12 25 1 -30 1 -30 15 28 c19 35 30 34 49 -3 9 -17
21 -30 28 -30 9 0 8 3 -1 9 -21 13 2 18 109 27 52 3 99 8 104 9 6 1 25 6 43
10 18 4 35 12 38 16 3 5 14 9 25 9 10 0 19 4 19 9 0 10 39 27 54 22 11 -3 69
20 76 30 6 8 256 59 289 59 11 0 36 9 55 19 19 11 37 17 40 14 3 -3 13 0 22 8
9 7 45 16 80 20 35 3 86 17 113 31 59 29 86 23 86 -18 0 -27 3 -29 35 -27 19
1 56 2 83 3 38 1 47 4 47 19 0 13 9 20 28 24 15 2 41 10 58 17 35 15 80 6 54
-10 -25 -16 22 -12 63 5 23 9 51 12 84 9 33 -4 60 -1 87 10 38 16 72 12 45 -5
-11 -6 -9 -9 7 -9 11 0 23 -2 26 -5 9 -10 -16 -55 -30 -55 -7 0 -10 -5 -6 -11
4 -8 9 -8 17 0 6 6 21 11 33 11 13 0 26 5 29 10 3 6 15 10 26 10 11 0 34 7 51
16 26 13 35 14 55 3 29 -16 75 -14 111 5 15 7 56 14 90 14 40 1 73 7 88 16 13
9 37 16 53 16 17 0 51 7 76 16 47 15 88 16 83 1 -7 -20 32 -28 61 -13 30 16
118 16 155 1 10 -5 31 -4 45 2 19 7 37 6 62 -2 26 -10 59 -10 132 -2 53 5 101
7 105 2 4 -4 1 -10 -5 -12 -20 -7 -15 -23 7 -23 11 0 20 -6 20 -13 0 -21 38
-39 60 -27 10 5 34 10 53 10 19 0 54 7 78 16 96 35 225 59 235 43 5 -8 69 -3
84 6 4 3 25 -2 46 -11 30 -12 52 -14 99 -8 86 11 587 8 738 -5 71 -6 179 -20
240 -32 162 -30 201 -34 193 -20 -4 6 -20 11 -37 11 -16 0 -29 5 -29 10 0 13
701 17 940 5 52 -2 228 -7 390 -11 353 -7 393 -8 407 -17 6 -4 18 -4 26 -1 8
3 18 1 21 -5 7 -11 149 -7 180 5 9 4 27 2 39 -3 13 -6 98 -8 202 -5 440 10
538 6 675 -29 25 -6 72 -13 105 -16 33 -3 65 -9 71 -14 6 -5 42 -13 80 -18 38
-5 123 -21 189 -35 66 -14 163 -30 215 -36 52 -6 111 -15 130 -20 19 -5 100
-14 180 -20 159 -12 361 -36 428 -51 23 -5 69 -9 101 -9 32 0 96 -7 142 -15
47 -8 119 -17 162 -20 42 -3 88 -10 103 -15 14 -6 53 -10 87 -10 34 0 82 -5
107 -11 25 -6 77 -12 115 -13 39 -1 76 -5 83 -10 7 -4 66 -9 130 -11 64 -2
163 -9 219 -15 59 -7 178 -10 285 -8 161 4 189 7 232 26 47 21 51 22 92 6 23
-9 48 -13 55 -8 22 13 108 13 122 0 7 -7 35 -16 62 -21 28 -4 53 -12 57 -18
12 -19 9 22 -3 44 -11 22 -95 63 -110 54 -4 -3 -11 6 -15 20 -7 28 -19 33 -28
10 -7 -20 -71 -11 -99 13 -9 8 -17 12 -17 8 0 -4 -9 -1 -20 7 -15 11 -49 13
-142 10 -163 -4 -395 -13 -488 -18 -257 -13 -337 -13 -381 0 -28 8 -51 10 -60
4 -22 -14 -71 -10 -90 7 -10 9 -48 20 -86 24 -37 5 -81 11 -98 14 -16 4 -95 8
-175 11 -198 5 -310 14 -340 25 -35 13 -70 15 -106 6 -20 -4 -47 -1 -75 8 -27
9 -59 13 -82 9 -28 -4 -42 -1 -57 12 -13 11 -29 16 -47 12 -15 -3 -54 -1 -88
4 -100 14 -288 40 -320 45 -96 13 -137 22 -147 32 -7 7 -33 12 -60 12 -26 0
-73 7 -105 15 -31 8 -65 12 -75 9 -12 -4 -18 0 -18 11 0 14 -7 16 -37 13 -21
-3 -54 0 -73 5 -19 6 -45 9 -57 8 -13 -1 -23 2 -23 7 0 8 -50 15 -107 14 -13
0 -23 5 -23 10 0 6 -6 8 -14 5 -8 -3 -40 1 -73 8 -32 8 -76 14 -98 15 -23 0
-45 4 -51 10 -5 5 -40 14 -78 19 -77 11 -90 18 -61 35 48 27 90 83 107 142 22
74 23 118 3 175 -20 55 -71 132 -99 147 -126 66 -200 74 -391 43 -256 -42
-317 -69 -356 -159 -24 -56 -24 -62 4 -62 23 -1 57 -21 57 -35 0 -5 7 -16 16
-26 26 -28 11 -47 -43 -54 -26 -3 -61 -8 -76 -10 -25 -4 -30 0 -48 40 -11 24
-27 51 -35 60 -15 15 -18 14 -35 -1 -22 -20 -25 -40 -6 -47 6 -3 3 -6 -8 -6
-59 -3 -300 -33 -360 -46 -38 -8 -133 -21 -210 -29 -77 -8 -187 -20 -244 -27
-69 -7 -226 -9 -470 -6 -314 4 -382 8 -481 26 -119 22 -398 97 -414 111 -4 5
-24 0 -42 -11 l-34 -19 -112 41 c-61 22 -132 44 -157 50 -59 13 -445 135 -490
155 -18 8 -84 23 -145 34 -177 30 -291 76 -438 176 -46 32 -103 66 -128 77
-99 43 -137 60 -175 77 -22 10 -71 31 -110 46 -38 15 -75 31 -80 35 -6 4 -23
10 -39 13 -15 3 -39 12 -51 20 -13 9 -42 18 -65 22 -22 4 -43 10 -46 15 -2 4
-58 6 -123 3 -80 -4 -121 -2 -126 5 -3 6 1 11 9 11 9 0 16 5 16 10 0 6 6 10
14 10 8 0 16 6 19 14 4 9 -7 17 -31 25 -51 16 -112 95 -112 146 0 160 136 248
368 237 24 -1 41 -5 39 -9 -3 -5 27 -9 66 -10 64 -2 83 -8 173 -52 85 -43 117
-66 203 -148 55 -53 101 -103 101 -110 0 -7 9 -22 21 -34 12 -12 23 -35 26
-53 3 -17 11 -38 18 -46 13 -15 49 -139 43 -146 -2 -1 -14 26 -27 62 -12 35
-27 64 -31 64 -22 0 -27 -35 -12 -84 8 -28 16 -57 18 -64 2 -7 16 -18 31 -24
15 -7 48 -27 73 -44 81 -56 273 -127 455 -168 66 -16 215 -57 330 -92 116 -35
239 -71 275 -79 36 -9 110 -30 164 -45 117 -34 120 -33 214 58 106 103 197
268 264 477 16 51 27 168 17 187 -14 25 -34 22 -54 -8 -18 -28 -69 -84 -77
-84 -2 0 -4 127 -4 283 0 169 -5 312 -12 357 -7 41 -16 103 -21 138 -10 63
-37 111 -153 269 -43 60 -45 60 -242 91 -81 13 -135 27 -146 37 -11 10 -26 42
-35 73 -44 150 -120 375 -169 504 -95 252 -237 547 -292 608 -17 19 -44 60
-59 90 -36 72 -107 189 -164 269 -64 89 -186 255 -204 277 -9 11 -80 100 -159
199 -79 99 -168 209 -198 245 -59 70 -95 114 -160 197 -42 54 -89 81 -174 104
-22 6 -138 49 -256 96 -229 91 -414 149 -599 188 -184 39 -297 48 -501 42
-210 -7 -327 -28 -405 -71 -34 -19 -41 -26 -22 -22 15 4 27 4 27 1 0 -12 -36
-41 -74 -60 -92 -47 -186 -158 -210 -246 -8 -30 -28 -83 -45 -119 -40 -86 -55
-183 -55 -360 0 -247 73 -513 199 -720 44 -72 45 -90 5 -90 -24 0 -35 8 -55
40 -14 22 -32 55 -39 73 -8 17 -23 52 -34 77 -44 102 -94 311 -113 473 -15
126 -6 325 19 444 17 77 46 156 105 283 6 14 22 40 36 58 35 48 15 54 -26 7
-118 -137 -183 -381 -183 -691 0 -131 21 -260 64 -395 33 -103 104 -276 133
-322 13 -21 21 -42 18 -47 -4 -6 -25 -10 -48 -9 -37 0 -46 5 -74 40 -48 60
-103 251 -159 554 -18 96 -28 367 -15 392 5 10 18 56 29 103 11 47 38 137 61
200 23 63 41 123 41 132 0 10 -11 36 -25 58 -14 22 -25 46 -25 54 0 8 -4 18
-10 21 -5 3 -10 14 -10 24 0 10 -9 26 -20 36 -11 10 -20 24 -20 31 0 18 -33
77 -48 87 -7 5 -10 12 -7 17 6 10 -15 62 -29 71 -5 4 -10 22 -11 40 -2 20 -12
40 -25 51 -12 10 -19 22 -16 27 3 5 -1 14 -9 21 -8 7 -12 17 -9 22 4 5 -3 22
-13 37 -11 14 -23 36 -27 48 -4 12 -13 27 -21 33 -8 7 -15 21 -15 32 0 10 -12
31 -27 46 -14 14 -27 39 -29 56 -1 16 -9 33 -18 38 -9 5 -16 20 -16 33 0 13
-4 27 -10 30 -5 3 -10 19 -10 34 0 16 -8 39 -19 52 -22 29 -36 95 -22 104 13
7 4 32 -25 72 -13 17 -24 35 -24 39 0 15 -63 134 -71 134 -5 0 -9 4 -9 10 0
11 -71 79 -83 80 -4 0 -31 24 -60 54 -33 34 -78 66 -122 87 -38 19 -73 37 -76
42 -10 13 -60 37 -78 37 -9 0 -21 4 -26 9 -6 6 -22 11 -37 13 -19 3 -68 44
-160 134 -73 72 -158 149 -188 171 -52 37 -61 40 -136 45 -57 3 -94 11 -123
26 -23 12 -43 22 -44 22 -1 -1 -25 -9 -54 -19z m1254 -1553 c12 -13 32 -43 45
-68 14 -25 40 -72 58 -105 88 -159 205 -410 232 -494 13 -41 34 -86 48 -100
50 -51 52 -56 38 -87 -7 -16 -15 -31 -19 -34 -4 -3 -18 -28 -33 -57 -31 -63
-34 -103 -7 -110 29 -7 36 -94 11 -141 -54 -104 -53 -93 -30 -225 30 -172 30
-181 1 -185 -13 -2 -28 1 -33 6 -11 11 -38 125 -49 212 -22 170 -22 223 0 349
13 76 18 127 12 130 -5 3 -13 22 -18 41 -8 30 -13 35 -36 32 -23 -2 -34 7 -24
22 5 9 -36 45 -45 40 -6 -4 -24 10 -40 31 -24 28 -33 34 -40 23 -6 -9 -7 -6
-3 10 5 17 2 22 -13 22 -11 0 -25 7 -32 15 -16 19 -112 64 -137 64 -10 0 -40
5 -68 11 -27 5 -55 8 -62 5 -7 -2 -13 0 -13 6 0 6 -8 5 -21 -2 -27 -14 -40 3
-32 42 4 22 1 28 -18 34 -13 4 -30 14 -37 22 -13 12 -12 16 7 29 11 8 21 26
21 39 0 13 7 31 16 40 9 9 14 24 11 36 -4 14 2 28 17 43 13 11 26 30 30 42 3
11 19 27 34 35 34 18 53 40 47 57 -2 6 -1 12 3 12 4 0 25 37 47 83 21 45 44
85 50 89 20 15 62 8 82 -14z m1570 -488 c279 -7 843 -163 1145 -316 164 -83
406 -250 517 -357 81 -78 100 -141 62 -203 -45 -74 -131 -68 -240 19 -199 156
-256 199 -355 266 -272 185 -691 352 -1096 436 -152 32 -444 45 -581 26 -166
-23 -224 -33 -246 -44 -28 -13 -41 -3 -21 15 18 17 97 61 178 101 62 30 72 31
200 34 74 1 163 8 197 15 34 8 79 13 100 12 21 -1 84 -2 140 -4z m352 -451
c177 -51 309 -98 451 -161 74 -33 158 -68 185 -78 28 -9 104 -45 171 -79 66
-33 125 -61 131 -61 13 0 130 -85 159 -115 11 -12 76 -50 145 -83 163 -81 260
-157 335 -264 32 -46 87 -119 124 -163 36 -44 87 -114 112 -155 40 -64 188
-352 188 -364 0 -2 18 -42 39 -88 22 -45 49 -108 61 -138 12 -30 28 -68 35
-85 14 -33 62 -179 94 -291 37 -125 35 -130 -76 -247 -106 -112 -187 -242
-239 -384 -15 -40 -32 -73 -38 -73 -6 0 -47 36 -91 81 -91 92 -152 142 -269
216 -81 53 -312 174 -325 171 -3 -1 -35 8 -71 20 -196 65 -354 80 -525 47 -49
-10 -106 -20 -125 -22 -39 -5 -220 -83 -220 -95 0 -10 66 -43 118 -58 23 -7
42 -17 42 -21 0 -14 129 -22 176 -10 78 20 248 15 352 -9 51 -12 99 -28 106
-36 8 -8 24 -14 34 -14 11 0 22 -3 24 -7 2 -5 38 -26 82 -48 43 -22 88 -48 99
-57 11 -10 26 -18 34 -18 7 0 13 -5 13 -10 0 -6 4 -9 9 -8 5 2 18 -8 29 -20
13 -14 26 -21 33 -16 7 4 9 3 6 -3 -3 -5 24 -36 60 -68 105 -95 209 -231 252
-331 12 -27 26 -56 30 -65 12 -22 54 -190 48 -195 -11 -11 -78 -6 -100 9 -40
26 -128 116 -192 197 -215 270 -483 437 -781 486 -109 17 -189 14 -297 -13
-89 -22 -122 -12 -122 37 -1 45 -11 60 -41 60 -15 0 -24 6 -24 15 0 8 -7 15
-15 15 -8 0 -15 5 -15 10 0 6 -5 10 -10 10 -26 0 -137 97 -300 260 -146 147
-392 403 -489 509 -20 22 -194 211 -226 245 -6 6 -62 70 -125 141 -63 72 -128
144 -145 160 -75 73 -145 169 -145 198 0 25 2 28 15 17 11 -9 18 -10 29 -1 7
6 43 14 78 18 l64 6 50 -61 c56 -69 79 -85 63 -45 -16 42 -46 191 -59 288 -6
50 -16 108 -21 130 -38 166 -57 491 -33 560 8 22 14 46 14 53 0 20 50 63 100
84 96 42 206 33 310 -25 67 -38 90 -57 206 -173 177 -178 235 -277 289 -491
19 -78 35 -158 35 -178 0 -20 5 -46 11 -57 19 -35 14 -314 -6 -387 -10 -33
-22 -61 -26 -61 -5 0 -9 -4 -9 -10 0 -17 -74 -82 -115 -100 -93 -42 -221 -43
-236 -2 -5 12 -16 22 -26 22 -20 0 -73 61 -73 84 0 9 -9 16 -20 16 -12 0 -24
10 -30 24 -8 21 -13 23 -54 19 -28 -4 -51 -1 -60 6 -12 10 -17 8 -26 -8 -8
-15 -8 -25 0 -34 6 -6 29 -37 51 -67 95 -128 361 -423 599 -661 224 -226 318
-308 321 -282 4 44 45 153 58 153 3 0 14 7 23 14 16 12 16 18 5 63 -11 40 -11
59 -1 91 9 32 9 42 -1 46 -7 2 -16 17 -19 32 -4 15 -15 39 -25 53 -10 14 -24
49 -31 76 -7 28 -19 61 -25 75 -21 43 -64 174 -74 220 -5 25 -18 90 -29 145
-12 55 -23 125 -26 155 -2 30 -7 62 -10 70 -3 8 -10 51 -16 95 -12 102 -30
233 -35 265 -3 14 -10 61 -16 105 -7 44 -24 109 -40 145 -15 36 -49 126 -74
200 -54 155 -92 242 -128 295 -34 50 -22 81 38 103 50 18 102 13 214 -19z
m-1769 -289 c0 -5 -5 -10 -11 -10 -5 0 -7 5 -4 10 3 6 8 10 11 10 2 0 4 -4 4
-10z m79 -159 c6 -33 15 -61 20 -63 13 -5 24 -78 11 -78 -5 0 -10 9 -10 20 0
11 -4 20 -8 20 -11 0 -34 99 -26 111 3 5 0 9 -5 9 -6 0 -11 12 -11 26 0 43 17
17 29 -45z m51 -167 c0 -8 -5 -12 -10 -9 -6 4 -8 11 -5 16 9 14 15 11 15 -7z
m-200 -310 c32 -3 46 1 56 14 9 11 13 13 14 4 0 -7 5 -10 10 -7 6 3 26 1 45
-7 28 -10 40 -10 55 0 32 20 73 14 93 -13 10 -14 43 -69 73 -123 65 -113 89
-142 121 -142 26 0 28 -8 12 -44 -10 -21 -7 -32 20 -76 18 -29 30 -58 27 -65
-2 -7 -22 -15 -43 -18 -22 -4 -68 -26 -103 -49 -96 -65 -103 -68 -143 -61 -30
4 -44 15 -72 53 -19 26 -35 53 -35 59 0 6 -4 11 -9 11 -5 0 -12 14 -16 30 -4
17 -13 36 -20 44 -8 7 -20 45 -28 84 -18 85 -53 163 -71 156 -13 -5 -36 48
-36 83 0 11 -9 32 -20 46 -11 14 -20 27 -20 30 0 10 35 13 41 4 4 -5 26 -11
49 -13z m-1966 -1675 c33 -26 24 -40 -41 -71 -55 -26 -77 -19 -63 18 6 15 8
29 5 32 -6 6 45 40 61 41 6 1 23 -8 38 -20z m155 -120 c25 -15 31 -23 22 -32
-6 -6 -11 -20 -11 -30 0 -17 -5 -19 -33 -14 -38 6 -50 1 -62 -28 -6 -16 -9
-17 -12 -5 -4 18 43 130 54 130 5 0 23 -9 42 -21z m208 -147 c14 -9 8 -91 -8
-106 -12 -13 -48 29 -49 57 0 43 28 67 57 49z m2199 -64 c20 -18 51 -59 70
-90 29 -47 40 -57 66 -60 29 -3 32 -7 36 -41 2 -21 1 -45 -2 -53 -5 -13 -9
-13 -28 0 -12 9 -29 16 -37 16 -21 0 -51 30 -51 51 0 10 -8 24 -17 31 -33 25
-53 55 -72 109 -28 78 -19 87 35 37z m-884 -124 c74 -50 98 -86 98 -142 0 -26
-5 -31 -42 -42 -65 -18 -310 -24 -429 -10 -100 11 -221 38 -284 62 -76 30
-160 97 -142 114 2 3 72 9 153 14 197 13 365 30 439 46 91 20 126 12 207 -42z
m2131 -29 c11 -33 33 -96 49 -141 32 -92 33 -100 14 -111 -9 -5 -16 -28 -18
-63 -3 -52 -5 -55 -31 -58 -37 -4 -75 21 -83 56 -12 48 -43 99 -64 105 -21 5
-25 -4 -32 -62 -4 -35 -29 -47 -64 -31 -21 9 -38 32 -62 82 -18 38 -40 72 -49
75 -22 9 -48 -10 -51 -38 -9 -79 -19 -84 -85 -42 -23 15 -44 28 -45 29 -2 2
-10 20 -17 41 -15 43 -5 73 24 73 11 0 43 11 73 25 82 38 103 35 164 -31 37
-41 57 -55 69 -50 14 5 16 16 10 79 -8 88 6 112 59 103 17 -3 45 1 61 9 46 21
56 15 78 -50z m-815 -21 c14 -10 22 -25 22 -45 0 -34 -25 -89 -41 -89 -14 0
-70 30 -86 45 -7 7 -18 15 -24 17 -16 5 -2 65 17 72 9 3 24 2 34 -4 13 -7 21
-6 30 5 16 19 20 19 48 -1z m-2152 -50 c20 -25 5 -53 -31 -60 -70 -13 -96 17
-54 62 26 27 64 26 85 -2z m2334 11 c16 -8 34 -23 39 -33 11 -21 3 -69 -17
-100 -16 -24 -42 -23 -73 4 -8 8 -23 14 -31 14 -19 0 -28 20 -28 63 0 60 49
83 110 52z m-712 -29 c2 -15 1 -35 -2 -43 -5 -13 -10 -12 -26 7 -24 27 -23 25
-8 50 17 26 32 20 36 -14z m-185 -48 c9 -32 -4 -47 -30 -37 -27 10 -29 27 -5
45 24 18 29 17 35 -8z m-311 -8 c19 -15 25 -28 24 -57 -1 -45 -24 -55 -56 -23
-15 15 -31 20 -58 18 -33 -3 -37 -6 -40 -33 -6 -49 -21 -59 -48 -34 -52 49
-36 120 26 111 16 -2 30 -8 30 -13 0 -5 5 -9 12 -9 6 0 8 3 5 7 -12 11 35 53
58 53 12 0 34 -9 47 -20z m188 -36 c0 -19 -41 -35 -57 -22 -18 14 -16 28 4 43
21 15 53 3 53 -21z m-1239 -34 c4 0 6 -7 3 -15 -6 -15 -64 -22 -64 -7 0 15 24
32 38 27 8 -3 18 -5 23 -5z m759 -105 c0 -28 -4 -35 -19 -35 -26 0 -34 15 -27
46 4 15 14 24 26 24 16 0 20 -7 20 -35z m-1606 -69 c-7 -18 -44 -22 -44 -4 0
6 8 20 17 30 14 16 18 16 25 4 4 -8 5 -21 2 -30z m865 20 c18 -22 -4 -30 -39
-14 -17 7 -30 16 -30 20 0 14 57 8 69 -6z m591 -15 c0 -11 -5 -23 -11 -27 -14
-8 -29 14 -22 33 8 20 33 16 33 -6z m-150 -49 c0 -26 -11 -34 -27 -21 -10 9
-10 15 -2 25 16 19 29 17 29 -4z m-1175 -32 c3 -5 -19 -23 -50 -41 -30 -17
-55 -35 -55 -40 0 -5 -4 -9 -9 -9 -19 0 -2 55 23 77 27 23 80 31 91 13z m536
-16 c10 -9 33 -23 51 -32 44 -22 50 -52 11 -52 -15 0 -37 7 -47 15 -11 8 -28
15 -38 15 -10 0 -18 4 -18 9 0 5 -16 12 -35 15 -40 8 -45 23 -12 36 34 14 69
12 88 -6z m-356 -65 c12 -19 16 -99 5 -99 -5 0 -10 5 -10 10 0 6 -16 10 -36
10 -23 0 -42 6 -50 18 -17 22 -18 59 -1 65 23 10 86 7 92 -4z m4075 -449 c16
-11 80 -45 142 -76 l113 -55 -220 5 c-121 3 -239 10 -262 16 -29 7 -57 7 -85
0 -67 -15 -71 -14 -63 18 11 46 36 63 112 72 68 9 163 45 163 62 0 11 63 -16
100 -42z m-3370 -40 c0 -5 -12 -10 -27 -9 l-28 1 25 8 c14 4 26 8 28 9 1 1 2
-3 2 -9z m7670 -30 c0 -14 -13 -18 -90 -29 -36 -5 -139 -21 -230 -36 -268 -43
-459 -65 -550 -64 -72 1 -79 3 -45 10 22 4 103 15 180 23 77 9 169 22 205 30
36 7 90 17 120 20 115 15 324 47 329 51 9 10 81 5 81 -5z m-3152 -37 c12 -10
32 -27 46 -38 14 -11 25 -23 26 -26 0 -5 -164 -1 -220 5 -14 2 -36 4 -50 5
-17 2 3 13 65 36 106 40 106 40 133 18z m-5621 -49 c-3 -3 -12 -4 -19 -1 -8 3
-5 6 6 6 11 1 17 -2 13 -5z m1783 -4 c0 -13 -41 -29 -58 -22 -9 3 -6 9 10 17
29 16 48 18 48 5z m300 -4 c0 -2 -9 -6 -20 -9 -11 -3 -18 -1 -14 4 5 9 34 13
34 5z m4195 -26 c-3 -5 -15 -10 -26 -10 -10 0 -19 5 -19 10 0 6 12 10 26 10
14 0 23 -4 19 -10z m289 -1 c-5 -8 1 -10 20 -7 35 7 346 -63 346 -78 0 -3 -79
-4 -175 -3 -151 1 -177 4 -185 18 -6 9 -10 11 -10 4 0 -9 -19 -13 -61 -13 -39
0 -58 4 -54 10 7 12 -12 40 -27 40 -6 0 -8 -7 -4 -15 3 -9 -1 -16 -9 -16 -47
-4 -75 -3 -75 2 0 4 -20 5 -44 4 -30 -2 -49 2 -57 11 -9 12 -6 14 21 14 17 0
44 7 60 16 24 15 34 15 71 5 76 -22 121 -22 149 -1 28 22 45 26 34 9z m2201
-19 c15 -17 31 -20 99 -20 l81 0 2 -31 2 -30 -400 2 c-220 1 -396 6 -392 10 6
5 158 31 483 82 67 11 107 7 125 -13z m-972 3 c-13 -2 -33 -2 -45 0 -13 2 -3
4 22 4 25 0 35 -2 23 -4z m-5943 -17 c0 -3 -4 -8 -10 -11 -5 -3 -10 -1 -10 4
0 6 5 11 10 11 6 0 10 -2 10 -4z m1660 -25 c0 -10 -25 -21 -48 -21 -12 1 -10
5 8 15 29 17 40 18 40 6z m60 -6 c0 -8 -9 -15 -20 -15 -22 0 -27 15 -7 23 21
9 27 7 27 -8z m2023 -87 c3 -12 4 -25 1 -30 -8 -12 -38 -10 -52 4 -10 10 -8
16 10 30 30 23 35 22 41 -4z m-1880 -2 c6 -14 -12 -26 -39 -26 -12 0 -12 4 -4
20 12 23 35 26 43 6z m-516 -2 c-3 -3 -12 -4 -19 -1 -8 3 -5 6 6 6 11 1 17 -2
13 -5z m-1022 -104 c-5 -8 -11 -8 -17 -2 -6 6 -7 16 -3 22 5 8 11 8 17 2 6 -6
7 -16 3 -22z m150 -17 c-16 -16 -16 -17 1 -30 16 -12 16 -13 -8 -13 -15 0 -30
5 -33 10 -3 6 -15 10 -25 10 -10 0 -22 5 -25 10 -12 20 7 30 56 30 47 0 49 -1
34 -17z"/>
<path d="M6432 1011 c-11 -7 -11 -9 2 -14 9 -4 23 -4 32 0 13 5 13 7 2 14 -7
5 -15 9 -18 9 -3 0 -11 -4 -18 -9z"/>
<path d="M6578 993 c7 -3 16 -2 19 1 4 3 -2 6 -13 5 -11 0 -14 -3 -6 -6z"/>
<path d="M12795 6505 c-5 -1 -44 -8 -85 -15 -41 -7 -97 -19 -125 -26 -27 -7
-61 -16 -75 -19 -14 -4 -34 -10 -45 -15 -44 -17 -265 -79 -335 -94 -121 -25
-198 -29 -285 -15 -44 8 -131 14 -193 14 -111 1 -114 1 -152 -28 l-38 -30 -7
-93 c-6 -84 -5 -98 13 -128 23 -39 67 -164 77 -218 6 -31 13 -39 48 -53 48
-19 123 -21 241 -4 72 9 89 8 185 -15 202 -48 378 -69 519 -63 70 3 151 1 180
-4 66 -13 158 -65 242 -139 72 -63 115 -86 176 -93 52 -6 66 3 69 43 2 24 0
29 -7 19 -7 -11 -9 -9 -5 7 2 11 0 47 -4 80 -4 32 -13 138 -19 234 -23 393
-23 393 -49 452 -40 94 -128 191 -181 202 -33 6 -126 7 -145 1z"/>
<path d="M7620 5063 c-24 -10 -39 -29 -46 -59 -4 -16 -13 -38 -20 -49 -7 -11
-20 -47 -30 -80 -19 -69 -15 -184 11 -275 25 -90 37 -190 31 -270 -6 -95 -19
-169 -33 -195 -6 -11 -17 -40 -24 -65 -7 -25 -19 -52 -26 -61 -18 -21 -54
-125 -59 -169 -12 -110 -11 -151 7 -214 20 -74 76 -196 89 -196 8 0 25 -56 19
-62 -1 -2 3 -13 9 -25 8 -14 9 -24 2 -28 -5 -3 -10 -15 -10 -26 0 -11 -9 -29
-20 -41 -11 -12 -20 -28 -20 -35 0 -7 -7 -13 -15 -13 -8 0 -15 -5 -15 -10 0
-6 -11 -28 -24 -49 -19 -30 -24 -52 -25 -107 0 -43 5 -78 14 -94 8 -14 18 -33
21 -42 3 -10 7 -18 8 -18 0 0 37 -4 81 -9 97 -11 233 5 259 31 15 15 75 38
101 38 6 0 23 23 38 50 16 28 32 50 37 50 11 0 6 44 -10 84 -12 32 -83 102
-112 112 -10 3 -18 14 -18 25 0 10 -4 19 -9 19 -17 0 -25 82 -10 94 18 14 75
131 84 171 3 17 6 40 6 53 -1 15 3 21 11 16 7 -5 9 -2 5 8 -3 9 -1 35 5 59 16
69 5 295 -13 283 -5 -3 -9 9 -9 26 0 17 -5 41 -12 53 -6 12 -11 35 -10 50 1
15 -2 36 -8 46 -5 11 -12 43 -15 73 -3 29 -10 69 -16 88 -21 70 -54 292 -65
435 -6 76 -24 141 -55 195 -21 36 -49 104 -49 116 0 8 -4 14 -9 14 -5 0 -15 2
-23 4 -7 3 -20 2 -28 -1z"/>
<path d="M14916 3538 c-3 -16 -5 -31 -5 -34 0 -4 -4 -10 -9 -13 -18 -11 15
-42 49 -46 18 -3 36 -10 41 -17 4 -7 8 18 8 58 l0 72 -39 4 c-36 3 -40 1 -45
-24z"/>
<path d="M14712 3516 c7 -8 17 -12 22 -9 4 3 2 9 -5 14 -22 13 -31 11 -17 -5z"/>
<path d="M11125 3164 c-22 -7 -71 -13 -110 -14 -38 -1 -92 -5 -120 -10 -74
-13 -247 -61 -259 -72 -6 -5 -20 -15 -31 -22 -18 -13 -18 -15 17 -29 19 -8 39
-20 42 -26 4 -6 16 -11 26 -11 10 0 20 -3 22 -8 4 -10 129 -62 159 -66 43 -6
104 -17 119 -23 21 -9 20 -8 70 -17 25 -4 79 -16 120 -27 41 -11 95 -23 120
-28 25 -6 63 -14 85 -20 22 -5 69 -12 105 -16 36 -4 74 -10 85 -13 51 -14 249
1 303 23 19 8 43 15 54 15 10 0 21 7 24 15 4 8 12 15 19 15 17 0 75 33 75 43
0 4 6 7 14 7 23 0 40 30 38 68 -6 86 -114 138 -327 158 -27 3 -86 12 -130 21
-77 16 -103 19 -173 22 -18 0 -31 5 -28 10 15 23 -244 27 -319 5z"/>
<path d="M9345 2988 c-111 -15 -191 -29 -205 -35 -8 -3 -18 -7 -21 -7 -3 -1
-22 -10 -42 -21 -35 -18 -37 -22 -31 -55 9 -47 12 -52 35 -45 17 6 24 -3 20
-27 0 -5 5 -8 12 -8 7 0 35 -11 63 -24 81 -39 135 -49 241 -44 65 4 111 11
138 23 22 11 44 19 50 19 26 2 31 156 4 156 -5 0 -9 9 -9 20 0 13 7 20 20 20
20 0 26 11 13 23 -3 4 -12 2 -20 -4 -10 -9 -13 -8 -13 4 0 13 -17 15 -102 14
-57 -1 -125 -5 -153 -9z"/>
<path d="M4593 2059 c-29 -11 -53 -25 -53 -30 0 -12 0 -12 56 12 108 48 274
-12 300 -109 4 -12 15 -27 25 -32 16 -9 17 -8 8 19 -42 120 -210 191 -336 140z"/>
<path d="M4458 2033 c6 -2 18 -2 25 0 6 3 1 5 -13 5 -14 0 -19 -2 -12 -5z"/>
<path d="M1280 1170 c0 -5 7 -10 16 -10 8 0 12 5 9 10 -3 6 -10 10 -16 10 -5
0 -9 -4 -9 -10z"/>
<path d="M1402 1168 c3 -7 13 -15 24 -17 16 -3 17 -1 5 13 -16 19 -34 21 -29
4z"/>
<path d="M395 1149 c-4 -6 -5 -12 -2 -15 7 -7 37 7 37 17 0 13 -27 11 -35 -2z"/>
<path d="M448 1153 c6 -2 18 -2 25 0 6 3 1 5 -13 5 -14 0 -19 -2 -12 -5z"/>
<path d="M200 1100 c-12 -8 -9 -10 12 -10 15 0 30 5 33 10 8 13 -25 13 -45 0z"/>
<path d="M56 1025 c-15 -8 -35 -15 -42 -15 -10 0 -14 -14 -14 -50 0 -51 8 -61
30 -35 7 8 20 15 29 15 29 0 36 14 31 57 l-5 43 -29 -15z"/>
<path d="M1770 970 c0 -5 9 -10 20 -10 11 0 20 5 20 10 0 6 -9 10 -20 10 -11
0 -20 -4 -20 -10z"/>
<path d="M1708 873 c7 -3 16 -2 19 1 4 3 -2 6 -13 5 -11 0 -14 -3 -6 -6z"/>
<path d="M4928 873 c6 -2 18 -2 25 0 6 3 1 5 -13 5 -14 0 -19 -2 -12 -5z"/>
<path d="M4000 795 c0 -8 3 -15 6 -15 3 0 12 7 20 15 14 13 13 15 -5 15 -12 0
-21 -6 -21 -15z"/>
<path d="M14073 378 c1 -26 39 -59 53 -45 12 12 -5 37 -25 37 -11 0 -22 8 -24
18 -3 9 -4 5 -4 -10z"/>
<path d="M14180 291 c0 -12 29 -23 41 -15 5 3 7 10 4 15 -8 12 -45 12 -45 0z"/>
<path d="M14532 123 c5 -25 28 -28 28 -4 0 12 -6 21 -16 21 -9 0 -14 -7 -12
-17z"/>
<path d="M14588 83 c7 -3 16 -2 19 1 4 3 -2 6 -13 5 -11 0 -14 -3 -6 -6z"/>
<path d="M14612 69 c-16 -25 -15 -26 8 -32 16 -4 20 0 20 18 0 32 -13 38 -28
14z"/>
<path d="M14546 65 c8 -19 14 -19 14 0 0 8 -4 15 -10 15 -5 0 -7 -7 -4 -15z"/>
<path d="M14660 36 l0 -36 73 1 c58 0 67 2 47 10 -14 6 -35 8 -48 6 -16 -3
-30 4 -47 25 l-25 30 0 -36z"/>
</g>
</svg>
