<svg width="21" height="20" viewBox="0 0 21 20" fill="none" xmlns="http://www.w3.org/2000/svg">
<path fill-rule="evenodd" clip-rule="evenodd" d="M17.921 6.77803L9.56086 15.1481L7.63081 13.218L15.9953 4.85233L17.921 6.77803ZM18.4445 6.25393L19.7254 4.97154C20.0142 4.68233 20.0121 4.21222 19.7218 3.92273L18.8479 3.05119C18.557 2.76116 18.0884 2.75891 17.7986 3.04883L16.5191 4.32851L18.4445 6.25393ZM7.151 13.7858L6.67726 16.0915L8.99942 15.6342L7.151 13.7858ZM14.6297 11.1111V18.5204C14.6297 19.3401 13.9673 20 13.1502 20H2.03524C1.21561 20 0.555664 19.3343 0.555664 18.5131V1.48691C0.555664 0.665436 1.22177 0 2.04346 0H9.44455V4.44585C9.44455 5.26911 10.1098 5.92593 10.9304 5.92593H13.889L17.2817 2.53325C17.8688 1.94609 18.8011 1.94918 19.3781 2.52611L20.2518 3.39981C20.8269 3.97495 20.8255 4.91534 20.2446 5.49622L14.6297 11.1111ZM10.1853 0V4.44227C10.1853 4.85257 10.5193 5.18518 10.9192 5.18518H14.6297L10.1853 0Z" fill="#73879C"/>
</svg>
