<svg width="18" height="19" viewBox="0 0 18 19" fill="none" xmlns="http://www.w3.org/2000/svg">
<mask id="mask0_7649_6241" style="mask-type:alpha" maskUnits="userSpaceOnUse" x="1" y="0" width="16" height="19">
<path fill-rule="evenodd" clip-rule="evenodd" d="M1.125 3.45312V2.46875C1.125 2.00117 1.50117 1.625 1.96875 1.625H5.90625L6.23672 0.967578C6.37734 0.679297 6.66914 0.5 6.98906 0.5H11.0074C11.3273 0.5 11.6191 0.679297 11.7633 0.967578L12.0938 1.625H16.0312C16.4988 1.625 16.875 2.00117 16.875 2.46875V3.45312C16.875 3.68516 16.6852 3.875 16.4531 3.875H1.54688C1.31484 3.875 1.125 3.68516 1.125 3.45312ZM15.75 5.42188V16.8125C15.75 17.7441 14.9941 18.5 14.0625 18.5H3.9375C3.00586 18.5 2.25 17.7441 2.25 16.8125V5.42188C2.25 5.18984 2.43984 5 2.67188 5H15.3281C15.5602 5 15.75 5.18984 15.75 5.42188ZM6.1875 7.8125C6.1875 7.50313 5.93437 7.25 5.625 7.25C5.31563 7.25 5.0625 7.50313 5.0625 7.8125V15.6875C5.0625 15.9969 5.31563 16.25 5.625 16.25C5.93437 16.25 6.1875 15.9969 6.1875 15.6875V7.8125ZM9.5625 7.8125C9.5625 7.50313 9.30937 7.25 9 7.25C8.69063 7.25 8.4375 7.50313 8.4375 7.8125V15.6875C8.4375 15.9969 8.69063 16.25 9 16.25C9.30937 16.25 9.5625 15.9969 9.5625 15.6875V7.8125ZM12.9375 7.8125C12.9375 7.50313 12.6844 7.25 12.375 7.25C12.0656 7.25 11.8125 7.50313 11.8125 7.8125V15.6875C11.8125 15.9969 12.0656 16.25 12.375 16.25C12.6844 16.25 12.9375 15.9969 12.9375 15.6875V7.8125Z" fill="white"/>
</mask>
<g mask="url(#mask0_7649_6241)">
<rect y="0.5" width="18" height="18" fill="#347AB4"/>
</g>
</svg>
