<svg width="16" height="16" viewBox="0 0 16 16" fill="none" xmlns="http://www.w3.org/2000/svg">
<mask id="mask0_17_93" style="mask-type:alpha" maskUnits="userSpaceOnUse" x="0" y="2" width="16" height="12">
<path fill-rule="evenodd" clip-rule="evenodd" d="M15.788 7.32428C14.2245 4.67105 11.3084 2.89777 7.98615 2.89777C4.66247 2.89777 1.74709 4.6723 0.184304 7.32428C-0.0614348 7.74127 -0.0614348 8.2588 0.184304 8.67579C1.74784 11.329 4.66386 13.1023 7.98615 13.1023C11.3098 13.1023 14.2252 11.3277 15.788 8.67576C16.0337 8.25878 16.0337 7.74126 15.788 7.32428ZM7.98615 11.7712C5.90194 11.7712 4.21492 10.0845 4.21492 8.00002C4.21492 5.9158 5.90161 4.22879 7.98615 4.22879C10.0704 4.22879 11.7574 5.91547 11.7574 8.00002C11.7574 10.0842 10.0707 11.7712 7.98615 11.7712ZM10.87 8.00002C10.87 9.59275 9.57889 10.8839 7.98616 10.8839C6.39342 10.8839 5.10227 9.59275 5.10227 8.00002C5.10227 7.50898 5.22514 7.0467 5.44157 6.64202L5.44155 6.6429C5.44155 7.29874 5.97321 7.83037 6.62904 7.83037C7.28487 7.83037 7.81653 7.29871 7.81653 6.6429C7.81653 5.98707 7.28487 5.45541 6.62904 5.45541L6.62815 5.45544C7.03284 5.23901 7.49512 5.11614 7.98616 5.11614C9.57889 5.11614 10.87 6.40728 10.87 8.00002Z" fill="white"/>
</mask>
<g mask="url(#mask0_17_93)">
<rect width="16" height="16" fill="white"/>
</g>
</svg>
