<svg width="24" height="24" viewBox="0 0 24 24" fill="none" xmlns="http://www.w3.org/2000/svg">
<path fill-rule="evenodd" clip-rule="evenodd" d="M5.27767 2.22217H7.72211V3.44439C7.72211 3.60647 7.7865 3.76191 7.9011 3.87651C8.01571 3.99112 8.17115 4.0555 8.33322 4.0555C8.4953 4.0555 8.65074 3.99112 8.76535 3.87651C8.87995 3.76191 8.94434 3.60647 8.94434 3.44439V2.22217H13.8332V3.44439C13.8332 3.60647 13.8976 3.76191 14.0122 3.87651C14.1268 3.99112 14.2823 4.0555 14.4443 4.0555C14.6064 4.0555 14.7619 3.99112 14.8765 3.87651C14.9911 3.76191 15.0554 3.60647 15.0554 3.44439V2.22217H15.6666C16.1528 2.22217 16.6191 2.41532 16.9629 2.75914C17.3067 3.10296 17.4999 3.56927 17.4999 4.0555V18.7222C17.4999 19.2084 17.3067 19.6747 16.9629 20.0185C16.6191 20.3623 16.1528 20.5555 15.6666 20.5555H5.27767C4.79144 20.5555 4.32512 20.3623 3.98131 20.0185C3.63749 19.6747 3.44434 19.2084 3.44434 18.7222V4.0555C3.44434 3.56927 3.63749 3.10296 3.98131 2.75914C4.32512 2.41532 4.79144 2.22217 5.27767 2.22217ZM6.49989 8.33328C6.33781 8.33328 6.18238 8.39766 6.06777 8.51227C5.95317 8.62687 5.88878 8.78231 5.88878 8.94439C5.88878 9.10647 5.95317 9.26191 6.06777 9.37651C6.18238 9.49112 6.33781 9.5555 6.49989 9.5555H14.4443C14.6064 9.5555 14.7619 9.49112 14.8765 9.37651C14.9911 9.26191 15.0554 9.10647 15.0554 8.94439C15.0554 8.78231 14.9911 8.62687 14.8765 8.51227C14.7619 8.39766 14.6064 8.33328 14.4443 8.33328H6.49989ZM5.88878 11.9999C5.88878 11.8379 5.95317 11.6824 6.06777 11.5678C6.18238 11.4532 6.33781 11.3888 6.49989 11.3888H10.7777C10.9397 11.3888 11.0952 11.4532 11.2098 11.5678C11.3244 11.6824 11.3888 11.8379 11.3888 11.9999C11.3888 12.162 11.3244 12.3175 11.2098 12.4321C11.0952 12.5467 10.9397 12.6111 10.7777 12.6111H6.49989C6.33781 12.6111 6.18238 12.5467 6.06777 12.4321C5.95317 12.3175 5.88878 12.162 5.88878 11.9999ZM6.49989 14.4444C6.33781 14.4444 6.18238 14.5088 6.06777 14.6234C5.95317 14.738 5.88878 14.8934 5.88878 15.0555C5.88878 15.2176 5.95317 15.373 6.06777 15.4876C6.18238 15.6022 6.33781 15.6666 6.49989 15.6666H13.2221C13.3842 15.6666 13.5396 15.6022 13.6542 15.4876C13.7688 15.373 13.8332 15.2176 13.8332 15.0555C13.8332 14.8934 13.7688 14.738 13.6542 14.6234C13.5396 14.5088 13.3842 14.4444 13.2221 14.4444H6.49989Z" fill="#347AB4"/>
<path fill-rule="evenodd" clip-rule="evenodd" d="M2.22222 3.44444V18.7222C2.22222 19.5326 2.54415 20.3098 3.11717 20.8828C3.6902 21.4559 4.46739 21.7778 5.27778 21.7778H15.6667V23H5.27778C4.14324 23 3.05517 22.5493 2.25293 21.7471C1.45069 20.9448 1 19.8568 1 18.7222V3.44444H2.22222ZM21.1667 3.44444C20.6804 3.44444 20.2141 3.6376 19.8703 3.98142C19.5265 4.32523 19.3333 4.79155 19.3333 5.27778V7.11111H23V5.27778C23 4.79155 22.8068 4.32523 22.463 3.98142C22.1192 3.6376 21.6529 3.44444 21.1667 3.44444ZM23 8.33333H19.3333V17.5L21.1667 19.9444L23 17.5V8.33333ZM13.2222 1C13.3843 1 13.5397 1.06438 13.6543 1.17899C13.7689 1.2936 13.8333 1.44903 13.8333 1.61111V4.05556C13.8333 4.21763 13.7689 4.37307 13.6543 4.48768C13.5397 4.60228 13.3843 4.66667 13.2222 4.66667C13.0601 4.66667 12.9047 4.60228 12.7901 4.48768C12.6755 4.37307 12.6111 4.21763 12.6111 4.05556V1.61111C12.6111 1.44903 12.6755 1.2936 12.7901 1.17899C12.9047 1.06438 13.0601 1 13.2222 1ZM7.11111 1C7.27319 1 7.42863 1.06438 7.54323 1.17899C7.65784 1.2936 7.72222 1.44903 7.72222 1.61111V4.05556C7.72222 4.21763 7.65784 4.37307 7.54323 4.48768C7.42863 4.60228 7.27319 4.66667 7.11111 4.66667C6.94903 4.66667 6.7936 4.60228 6.67899 4.48768C6.56438 4.37307 6.5 4.21763 6.5 4.05556V1.61111C6.5 1.44903 6.56438 1.2936 6.67899 1.17899C6.7936 1.06438 6.94903 1 7.11111 1Z" fill="#347AB4"/>
</svg>
