<svg width="18" height="18" viewBox="0 0 18 18" fill="none" xmlns="http://www.w3.org/2000/svg">
<mask id="mask0_877_4789" style="mask-type:alpha" maskUnits="userSpaceOnUse" x="0" y="0" width="18" height="18">
<rect width="18" height="18" fill="#D9D9D9"/>
</mask>
<g mask="url(#mask0_877_4789)">
<path d="M2.98132 15.7507V13.5007H5.30632L3.39382 7.23819C3.05632 7.05069 2.77832 6.77569 2.55982 6.41319C2.34082 6.05069 2.23132 5.66319 2.23132 5.25069C2.23132 4.62569 2.45007 4.09444 2.88757 3.65694C3.32507 3.21944 3.85632 3.00069 4.48132 3.00069C4.96882 3.00069 5.40332 3.14119 5.78482 3.42219C6.16582 3.70369 6.43132 4.06319 6.58132 4.50069H8.98132V3.75069C8.98132 3.53819 9.05332 3.35994 9.19732 3.21594C9.34082 3.07244 9.51882 3.00069 9.73132 3.00069C9.84382 3.00069 9.95332 3.02569 10.0598 3.07569C10.1658 3.12569 10.2563 3.20069 10.3313 3.30069L11.6063 2.10069C11.7188 1.98819 11.8531 1.91619 12.0091 1.88469C12.1656 1.85369 12.3188 1.87569 12.4688 1.95069L15.3938 3.30069C15.5438 3.37569 15.6471 3.48494 15.7036 3.62844C15.7596 3.77244 15.7563 3.91319 15.6938 4.05069C15.6188 4.20069 15.5096 4.29744 15.3661 4.34094C15.2221 4.38494 15.0813 4.37569 14.9438 4.31319L12.2438 3.07569L10.4813 4.72569V5.77569L12.2438 7.38819L14.9438 6.15069C15.0813 6.08819 15.2251 6.08194 15.3751 6.13194C15.5251 6.18194 15.6313 6.27569 15.6938 6.41319C15.7688 6.56319 15.7751 6.70694 15.7126 6.84444C15.6501 6.98194 15.5438 7.08819 15.3938 7.16319L12.4688 8.55069C12.3188 8.62569 12.1656 8.64744 12.0091 8.61594C11.8531 8.58494 11.7188 8.51319 11.6063 8.40069L10.3313 7.20069C10.2563 7.27569 10.1658 7.34444 10.0598 7.40694C9.95332 7.46944 9.84382 7.50069 9.73132 7.50069C9.51882 7.50069 9.34082 7.42869 9.19732 7.28469C9.05332 7.14119 8.98132 6.96319 8.98132 6.75069V6.00069H6.58132C6.54382 6.10069 6.50332 6.19444 6.45982 6.28194C6.41582 6.36944 6.35632 6.46319 6.28132 6.56319L10.0313 13.5007H12.7313V15.7507H2.98132ZM4.48132 6.00069C4.69382 6.00069 4.87207 5.92894 5.01607 5.78544C5.15957 5.64144 5.23132 5.46319 5.23132 5.25069C5.23132 5.03819 5.15957 4.85994 5.01607 4.71594C4.87207 4.57244 4.69382 4.50069 4.48132 4.50069C4.26882 4.50069 4.09082 4.57244 3.94732 4.71594C3.80332 4.85994 3.73132 5.03819 3.73132 5.25069C3.73132 5.46319 3.80332 5.64144 3.94732 5.78544C4.09082 5.92894 4.26882 6.00069 4.48132 6.00069ZM6.84382 13.5007H8.30632L5.08132 7.50069C5.08132 7.50069 5.06882 7.50069 5.04382 7.50069C5.01882 7.50069 5.00632 7.50069 5.00632 7.50069L6.84382 13.5007Z" fill="white"/>
</g>
</svg>
