<svg width="24" height="24" viewBox="0 0 24 24" fill="none" xmlns="http://www.w3.org/2000/svg">
<path d="M0.692383 2H18.4616V5.23077H0.692383V2ZM0.692383 8.46154H18.4616V11.6923H0.692383V8.46154ZM0.692383 14.9231H12.0001V18.1538H0.692383V14.9231Z" fill="#347AB4"/>
<g clip-path="url(#clip0_24_416)">
<path d="M19.3125 13.9437C19.0623 13.0957 17.8605 13.0957 17.6103 13.9437L17.5497 14.1497C17.5123 14.2767 17.447 14.3937 17.3585 14.4921C17.27 14.5905 17.1607 14.6679 17.0384 14.7186C16.9161 14.7692 16.784 14.7918 16.6519 14.7848C16.5197 14.7778 16.3908 14.7413 16.2746 14.6779L16.0868 14.5749C15.3096 14.1521 14.4597 15.002 14.8831 15.7786L14.9855 15.967C15.2557 16.4637 14.9994 17.0822 14.4573 17.2421L14.2513 17.3027C13.4032 17.5529 13.4032 18.7548 14.2513 19.0049L14.4573 19.0655C14.5842 19.1029 14.7012 19.1682 14.7996 19.2567C14.8981 19.3452 14.9755 19.4546 15.0261 19.5768C15.0768 19.6991 15.0994 19.8312 15.0924 19.9634C15.0853 20.0955 15.0488 20.2244 14.9855 20.3407L14.8825 20.5284C14.4597 21.3056 15.3096 22.1555 16.0862 21.7321L16.2746 21.6297C16.3908 21.5664 16.5197 21.5299 16.6519 21.5228C16.784 21.5158 16.9161 21.5385 17.0384 21.5891C17.1607 21.6398 17.27 21.7171 17.3585 21.8156C17.447 21.914 17.5123 22.031 17.5497 22.158L17.6103 22.3639C17.8605 23.212 19.0623 23.212 19.3125 22.3639L19.3731 22.158C19.4105 22.031 19.4758 21.914 19.5643 21.8156C19.6527 21.7171 19.7621 21.6398 19.8844 21.5891C20.0067 21.5385 20.1387 21.5158 20.2709 21.5228C20.4031 21.5299 20.532 21.5664 20.6482 21.6297L20.836 21.7327C21.6132 22.1555 22.4631 21.3056 22.0397 20.5291L21.9373 20.3407C21.874 20.2244 21.8374 20.0955 21.8304 19.9634C21.8234 19.8312 21.846 19.6991 21.8967 19.5768C21.9473 19.4546 22.0247 19.3452 22.1231 19.2567C22.2216 19.1682 22.3386 19.1029 22.4655 19.0655L22.6715 19.0049C23.5196 18.7548 23.5196 17.5529 22.6715 17.3027L22.4655 17.2421C22.3386 17.2048 22.2216 17.1394 22.1231 17.051C22.0247 16.9625 21.9473 16.8531 21.8967 16.7308C21.846 16.6085 21.8234 16.4765 21.8304 16.3443C21.8374 16.2121 21.874 16.0832 21.9373 15.967L22.0403 15.7792C22.4631 15.002 21.6132 14.1521 20.8366 14.5756L20.6482 14.6779C20.532 14.7413 20.4031 14.7778 20.2709 14.7848C20.1387 14.7918 20.0067 14.7692 19.8844 14.7186C19.7621 14.6679 19.6527 14.5905 19.5643 14.4921C19.4758 14.3937 19.4105 14.2767 19.3731 14.1497L19.3125 13.9437ZM18.4614 19.9287C17.9907 19.9287 17.5392 19.7417 17.2063 19.4089C16.8735 19.076 16.6865 18.6246 16.6865 18.1538C16.6865 17.6831 16.8735 17.2316 17.2063 16.8988C17.5392 16.5659 17.9907 16.3789 18.4614 16.3789C18.932 16.3789 19.3833 16.5659 19.716 16.8986C20.0488 17.2314 20.2357 17.6827 20.2357 18.1532C20.2357 18.6238 20.0488 19.0751 19.716 19.4078C19.3833 19.7406 18.932 19.9275 18.4614 19.9275V19.9287Z" fill="#347AB4"/>
</g>
<defs>
<clipPath id="clip0_24_416">
<rect width="9.69231" height="9.69231" fill="white" transform="translate(13.6152 13.3077)"/>
</clipPath>
</defs>
</svg>
