<svg width="16" height="16" viewBox="0 0 16 16" fill="none" xmlns="http://www.w3.org/2000/svg">
<path d="M6.39961 12.8C5.95961 12.8 5.58308 12.6435 5.27001 12.3304C4.95641 12.0168 4.79961 11.64 4.79961 11.2V1.6C4.79961 1.16 4.95641 0.7832 5.27001 0.4696C5.58308 0.156533 5.95961 0 6.39961 0H13.5996C14.0396 0 14.4164 0.156533 14.73 0.4696C15.0431 0.7832 15.1996 1.16 15.1996 1.6V11.2C15.1996 11.64 15.0431 12.0168 14.73 12.3304C14.4164 12.6435 14.0396 12.8 13.5996 12.8H6.39961ZM3.19961 16C2.75961 16 2.38281 15.8435 2.06921 15.5304C1.75614 15.2168 1.59961 14.84 1.59961 14.4V3.2H3.19961V14.4H11.9996V16H3.19961Z" fill="#347AB4"/>
</svg>
