<svg width="18" height="19" viewBox="0 0 18 19" fill="none" xmlns="http://www.w3.org/2000/svg">
<mask id="mask0_7649_31221" style="mask-type:alpha" maskUnits="userSpaceOnUse" x="0" y="1" width="18" height="17">
<path fill-rule="evenodd" clip-rule="evenodd" d="M12.5813 4.10078L15.4 6.91953C15.5188 7.03828 15.5188 7.23203 15.4 7.35078L8.57502 14.1758L5.67502 14.4977C5.28752 14.5414 4.95939 14.2133 5.00314 13.8258L5.32502 10.9258L12.15 4.10078C12.2688 3.98203 12.4625 3.98203 12.5813 4.10078ZM17.6438 3.38516L16.1188 1.86016C15.6438 1.38516 14.8719 1.38516 14.3938 1.86016L13.2875 2.96641C13.1688 3.08516 13.1688 3.27891 13.2875 3.39766L16.1063 6.21641C16.225 6.33516 16.4188 6.33516 16.5375 6.21641L17.6438 5.11016C18.1188 4.63203 18.1188 3.86016 17.6438 3.38516ZM12 12.3195V15.5008H2V5.50078H9.18125C9.28125 5.50078 9.375 5.46016 9.44688 5.39141L10.6969 4.14141C10.9344 3.90391 10.7656 3.50078 10.4313 3.50078H1.5C0.671875 3.50078 0 4.17266 0 5.00078V16.0008C0 16.8289 0.671875 17.5008 1.5 17.5008H12.5C13.3281 17.5008 14 16.8289 14 16.0008V11.0695C14 10.7352 13.5969 10.5695 13.3594 10.8039L12.1094 12.0539C12.0406 12.1258 12 12.2195 12 12.3195Z" fill="white"/>
</mask>
<g mask="url(#mask0_7649_31221)">
<rect y="0.5" width="18" height="18" fill="#347AB4"/>
</g>
</svg>
