<svg width="24" height="24" viewBox="0 0 24 24" fill="none" xmlns="http://www.w3.org/2000/svg">
<path fill-rule="evenodd" clip-rule="evenodd" d="M6 2H14L20 8V20C20 20.5304 19.7893 21.0391 19.4142 21.4142C19.0391 21.7893 18.5304 22 18 22H6C5.46957 22 4.96086 21.7893 4.58579 21.4142C4.21071 21.0391 4 20.5304 4 20V4C4 3.46957 4.21071 2.96086 4.58579 2.58579C4.96086 2.21071 5.46957 2 6 2ZM13 9H14H18L13 4V9ZM11.5815 16.4091C11.423 16.4091 11.2852 16.4398 11.1684 16.5013C11.0543 16.5628 10.9611 16.6457 10.8888 16.75C10.8164 16.8516 10.7622 16.9679 10.726 17.0989C10.6926 17.2299 10.6759 17.3636 10.6759 17.5C10.6759 17.6364 10.6926 17.7701 10.726 17.9011C10.7622 18.0321 10.8164 18.1497 10.8888 18.254C10.9611 18.3556 11.0543 18.4372 11.1684 18.4987C11.2852 18.5602 11.423 18.5909 11.5815 18.5909C11.7401 18.5909 11.8764 18.5602 11.9905 18.4987C12.1074 18.4372 12.202 18.3556 12.2743 18.254C12.3466 18.1497 12.3995 18.0321 12.4329 17.9011C12.469 17.7701 12.4871 17.6364 12.4871 17.5C12.4871 17.3636 12.469 17.2299 12.4329 17.0989C12.3995 16.9679 12.3466 16.8516 12.2743 16.75C12.202 16.6457 12.1074 16.5628 11.9905 16.5013C11.8764 16.4398 11.7401 16.4091 11.5815 16.4091ZM11.5815 16C11.8041 16 12.003 16.0401 12.1783 16.1203C12.3564 16.2005 12.5066 16.3088 12.629 16.4452C12.7514 16.5816 12.8446 16.7406 12.9086 16.9225C12.9754 17.1043 13.0088 17.2968 13.0088 17.5C13.0088 17.7059 12.9754 17.8997 12.9086 18.0816C12.8446 18.2634 12.7514 18.4225 12.629 18.5588C12.5066 18.6952 12.3564 18.8035 12.1783 18.8837C12.003 18.9612 11.8041 19 11.5815 19C11.359 19 11.1587 18.9612 10.9806 18.8837C10.8053 18.8035 10.6565 18.6952 10.5341 18.5588C10.4116 18.4225 10.3171 18.2634 10.2503 18.0816C10.1863 17.8997 10.1543 17.7059 10.1543 17.5C10.1543 17.2968 10.1863 17.1043 10.2503 16.9225C10.3171 16.7406 10.4116 16.5816 10.5341 16.4452C10.6565 16.3088 10.8053 16.2005 10.9806 16.1203C11.1587 16.0401 11.359 16 11.5815 16ZM8 16.0682H8.52165V18.4987H10.0365V18.9318H8V16.0682ZM15.6661 18.9318H16V17.4238H14.7313V17.8048H15.5243C15.5215 17.9251 15.502 18.0348 15.4658 18.1337C15.4297 18.2326 15.3754 18.3168 15.3031 18.3864C15.2335 18.4532 15.1473 18.5053 15.0443 18.5428C14.9414 18.5775 14.8232 18.5936 14.6896 18.5909C14.531 18.5909 14.3933 18.5602 14.2765 18.4987C14.1624 18.4372 14.0692 18.3556 13.9969 18.254C13.9245 18.1497 13.8703 18.0321 13.8341 17.9011C13.8007 17.7701 13.784 17.6364 13.784 17.5C13.784 17.3636 13.8007 17.2299 13.8341 17.0989C13.8703 16.9679 13.9245 16.8516 13.9969 16.75C14.0692 16.6457 14.1624 16.5628 14.2765 16.5013C14.3933 16.4398 14.531 16.4091 14.6896 16.4091C14.7842 16.4091 14.8746 16.4211 14.9609 16.4452C15.0471 16.4693 15.125 16.5053 15.1946 16.5535C15.2641 16.6016 15.3212 16.6618 15.3657 16.734C15.413 16.8035 15.4436 16.885 15.4575 16.9786H15.9666C15.9471 16.8182 15.8998 16.6765 15.8247 16.5535C15.7496 16.4305 15.655 16.3289 15.5409 16.2487C15.4269 16.1658 15.2961 16.1043 15.1487 16.0642C15.004 16.0214 14.851 16 14.6896 16C14.467 16 14.2667 16.0401 14.0887 16.1203C13.9134 16.2005 13.7645 16.3088 13.6421 16.4452C13.5197 16.5816 13.4251 16.7406 13.3584 16.9225C13.2944 17.1043 13.2624 17.2968 13.2624 17.5C13.2624 17.7059 13.2944 17.8997 13.3584 18.0816C13.4251 18.2634 13.5197 18.4225 13.6421 18.5588C13.7645 18.6952 13.9134 18.8035 14.0887 18.8837C14.2667 18.9612 14.467 19 14.6896 19C14.8704 19 15.0304 18.9706 15.1695 18.9118C15.3086 18.8529 15.4477 18.7473 15.5869 18.5949L15.6661 18.9318Z" fill="#347AB4"/>
</svg>
