<svg width="18" height="18" viewBox="0 0 18 18" fill="none" xmlns="http://www.w3.org/2000/svg">
<path fill-rule="evenodd" clip-rule="evenodd" d="M3.30222 8.71662C4.13922 9.00387 4.80597 9.70437 5.08497 10.5924L5.11497 10.6824C5.43447 11.6244 5.30472 12.6384 4.76922 13.3989C4.67172 13.5369 4.69347 13.7019 4.79622 13.7799L6.35022 14.9604C6.40497 15.0016 6.45822 15.0016 6.49122 14.9979C6.52872 14.9919 6.58347 14.9716 6.62772 14.9086L6.80097 14.6626C7.31772 13.9299 8.15022 13.4776 9.02922 13.4521C10.0162 13.4319 10.9027 13.8841 11.4547 14.6814L11.5432 14.8096C11.5875 14.8726 11.6415 14.8936 11.6797 14.8996C11.7127 14.9064 11.7667 14.9041 11.8207 14.8621L13.3665 13.6959C13.4745 13.6149 13.4985 13.4416 13.4182 13.3254L13.2232 13.0441C12.7207 12.3181 12.5715 11.3761 12.8242 10.5249C13.0987 9.59787 13.797 8.86437 14.6932 8.56437L14.844 8.51337C14.9647 8.47362 15.03 8.32362 14.9872 8.18562L14.397 6.29487C14.3692 6.20637 14.3122 6.16662 14.2807 6.15012C14.2357 6.12687 14.187 6.12312 14.1405 6.13887L13.8855 6.22362C13.0132 6.51387 12.051 6.35637 11.3122 5.80062L11.2312 5.73987C10.5292 5.21187 10.1115 4.36062 10.1145 3.46362L10.116 3.25362C10.116 3.15387 10.0687 3.09162 10.0402 3.06312C10.0132 3.03537 9.96747 3.00237 9.90297 3.00237L7.99272 3.00012C7.87572 3.00012 7.78047 3.11187 7.77972 3.24987L7.77897 3.43137C7.77522 4.34262 7.34847 5.20962 6.63747 5.75187L6.54072 5.82537C5.75847 6.42012 4.73847 6.58812 3.81447 6.27312C3.77922 6.26112 3.74622 6.26337 3.71472 6.27987C3.69072 6.29187 3.64722 6.32262 3.62622 6.39087L3.01347 8.33787C2.96922 8.47962 3.04197 8.62737 3.17922 8.67462L3.30222 8.71662ZM6.46046 16.5001C6.09596 16.5001 5.74196 16.3816 5.44346 16.1544L3.88946 14.9746C3.14696 14.4121 2.98271 13.3299 3.52271 12.5626C3.80321 12.1651 3.86096 11.6544 3.69596 11.1699L3.65471 11.0439C3.51746 10.6074 3.20396 10.2684 2.81621 10.1356H2.81546L2.69321 10.0929C1.77971 9.78012 1.29221 8.81187 1.58246 7.88787L2.19446 5.94162C2.33321 5.50137 2.63246 5.14587 3.03746 4.94112C3.43346 4.74162 3.88121 4.71087 4.29971 4.85412C4.74896 5.00712 5.24771 4.92387 5.63246 4.63137L5.72921 4.55787C6.07121 4.29687 6.27746 3.87312 6.27896 3.42537L6.27971 3.24462C6.28346 2.28162 7.05221 1.50012 7.99196 1.50012H7.99496L9.90521 1.50237C10.3567 1.50312 10.7827 1.68162 11.1037 2.00487C11.436 2.33862 11.6175 2.78487 11.616 3.26112L11.6145 3.47037C11.613 3.89487 11.8072 4.29612 12.135 4.54212L12.2152 4.60287C12.5595 4.86162 13.008 4.93587 13.4107 4.80087L13.665 4.71612C14.0977 4.57212 14.5582 4.60737 14.964 4.81512C15.3802 5.02812 15.6877 5.39487 15.8287 5.84862L16.419 7.73937C16.704 8.65287 16.2105 9.63837 15.3202 9.93612L15.1695 9.98637C14.7375 10.1319 14.3977 10.4919 14.262 10.9509C14.1375 11.3716 14.2095 11.8344 14.4562 12.1899L14.6512 12.4711C15.1867 13.2451 15.0157 14.3311 14.2702 14.8929L12.7245 16.0599C12.3532 16.3404 11.898 16.4536 11.4412 16.3809C10.9807 16.3066 10.5787 16.0516 10.3095 15.6631L10.221 15.5341C9.95846 15.1561 9.53846 14.9266 9.09821 14.9514C8.65721 14.9634 8.27621 15.1726 8.02721 15.5266L7.85396 15.7726C7.58246 16.1574 7.17971 16.4086 6.72146 16.4806C6.63371 16.4941 6.54671 16.5001 6.46046 16.5001ZM9.0001 7.87505C8.37985 7.87505 7.8751 8.3798 7.8751 9.00005C7.8751 9.6203 8.37985 10.1251 9.0001 10.1251C9.62035 10.1251 10.1251 9.6203 10.1251 9.00005C10.1251 8.3798 9.62035 7.87505 9.0001 7.87505ZM9.0001 11.6251C7.5526 11.6251 6.3751 10.4476 6.3751 9.00005C6.3751 7.55255 7.5526 6.37505 9.0001 6.37505C10.4476 6.37505 11.6251 7.55255 11.6251 9.00005C11.6251 10.4476 10.4476 11.6251 9.0001 11.6251Z" fill="#231F20"/>
<mask id="mask0_73_681" style="mask-type:alpha" maskUnits="userSpaceOnUse" x="1" y="1" width="16" height="16">
<path fill-rule="evenodd" clip-rule="evenodd" d="M3.30222 8.71662C4.13922 9.00387 4.80597 9.70437 5.08497 10.5924L5.11497 10.6824C5.43447 11.6244 5.30472 12.6384 4.76922 13.3989C4.67172 13.5369 4.69347 13.7019 4.79622 13.7799L6.35022 14.9604C6.40497 15.0016 6.45822 15.0016 6.49122 14.9979C6.52872 14.9919 6.58347 14.9716 6.62772 14.9086L6.80097 14.6626C7.31772 13.9299 8.15022 13.4776 9.02922 13.4521C10.0162 13.4319 10.9027 13.8841 11.4547 14.6814L11.5432 14.8096C11.5875 14.8726 11.6415 14.8936 11.6797 14.8996C11.7127 14.9064 11.7667 14.9041 11.8207 14.8621L13.3665 13.6959C13.4745 13.6149 13.4985 13.4416 13.4182 13.3254L13.2232 13.0441C12.7207 12.3181 12.5715 11.3761 12.8242 10.5249C13.0987 9.59787 13.797 8.86437 14.6932 8.56437L14.844 8.51337C14.9647 8.47362 15.03 8.32362 14.9872 8.18562L14.397 6.29487C14.3692 6.20637 14.3122 6.16662 14.2807 6.15012C14.2357 6.12687 14.187 6.12312 14.1405 6.13887L13.8855 6.22362C13.0132 6.51387 12.051 6.35637 11.3122 5.80062L11.2312 5.73987C10.5292 5.21187 10.1115 4.36062 10.1145 3.46362L10.116 3.25362C10.116 3.15387 10.0687 3.09162 10.0402 3.06312C10.0132 3.03537 9.96747 3.00237 9.90297 3.00237L7.99272 3.00012C7.87572 3.00012 7.78047 3.11187 7.77972 3.24987L7.77897 3.43137C7.77522 4.34262 7.34847 5.20962 6.63747 5.75187L6.54072 5.82537C5.75847 6.42012 4.73847 6.58812 3.81447 6.27312C3.77922 6.26112 3.74622 6.26337 3.71472 6.27987C3.69072 6.29187 3.64722 6.32262 3.62622 6.39087L3.01347 8.33787C2.96922 8.47962 3.04197 8.62737 3.17922 8.67462L3.30222 8.71662ZM6.46046 16.5001C6.09596 16.5001 5.74196 16.3816 5.44346 16.1544L3.88946 14.9746C3.14696 14.4121 2.98271 13.3299 3.52271 12.5626C3.80321 12.1651 3.86096 11.6544 3.69596 11.1699L3.65471 11.0439C3.51746 10.6074 3.20396 10.2684 2.81621 10.1356H2.81546L2.69321 10.0929C1.77971 9.78012 1.29221 8.81187 1.58246 7.88787L2.19446 5.94162C2.33321 5.50137 2.63246 5.14587 3.03746 4.94112C3.43346 4.74162 3.88121 4.71087 4.29971 4.85412C4.74896 5.00712 5.24771 4.92387 5.63246 4.63137L5.72921 4.55787C6.07121 4.29687 6.27746 3.87312 6.27896 3.42537L6.27971 3.24462C6.28346 2.28162 7.05221 1.50012 7.99196 1.50012H7.99496L9.90521 1.50237C10.3567 1.50312 10.7827 1.68162 11.1037 2.00487C11.436 2.33862 11.6175 2.78487 11.616 3.26112L11.6145 3.47037C11.613 3.89487 11.8072 4.29612 12.135 4.54212L12.2152 4.60287C12.5595 4.86162 13.008 4.93587 13.4107 4.80087L13.665 4.71612C14.0977 4.57212 14.5582 4.60737 14.964 4.81512C15.3802 5.02812 15.6877 5.39487 15.8287 5.84862L16.419 7.73937C16.704 8.65287 16.2105 9.63837 15.3202 9.93612L15.1695 9.98637C14.7375 10.1319 14.3977 10.4919 14.262 10.9509C14.1375 11.3716 14.2095 11.8344 14.4562 12.1899L14.6512 12.4711C15.1867 13.2451 15.0157 14.3311 14.2702 14.8929L12.7245 16.0599C12.3532 16.3404 11.898 16.4536 11.4412 16.3809C10.9807 16.3066 10.5787 16.0516 10.3095 15.6631L10.221 15.5341C9.95846 15.1561 9.53846 14.9266 9.09821 14.9514C8.65721 14.9634 8.27621 15.1726 8.02721 15.5266L7.85396 15.7726C7.58246 16.1574 7.17971 16.4086 6.72146 16.4806C6.63371 16.4941 6.54671 16.5001 6.46046 16.5001ZM9.0001 7.87505C8.37985 7.87505 7.8751 8.3798 7.8751 9.00005C7.8751 9.6203 8.37985 10.1251 9.0001 10.1251C9.62035 10.1251 10.1251 9.6203 10.1251 9.00005C10.1251 8.3798 9.62035 7.87505 9.0001 7.87505ZM9.0001 11.6251C7.5526 11.6251 6.3751 10.4476 6.3751 9.00005C6.3751 7.55255 7.5526 6.37505 9.0001 6.37505C10.4476 6.37505 11.6251 7.55255 11.6251 9.00005C11.6251 10.4476 10.4476 11.6251 9.0001 11.6251Z" fill="white"/>
</mask>
<g mask="url(#mask0_73_681)">
<rect width="18" height="18" fill="#C2D7E8"/>
</g>
</svg>
