<svg width="24" height="24" viewBox="0 0 24 24" fill="none" xmlns="http://www.w3.org/2000/svg">
<mask id="mask0_19_279" style="mask-type:alpha" maskUnits="userSpaceOnUse" x="0" y="4" width="24" height="16">
<path fill-rule="evenodd" clip-rule="evenodd" d="M23.682 10.9864C21.3367 7.0066 16.9627 4.34668 11.9792 4.34668C6.99371 4.34668 2.62064 7.00848 0.276456 10.9864C-0.0921521 11.6119 -0.0921521 12.3882 0.276456 13.0137C2.62176 16.9935 6.99579 19.6534 11.9792 19.6534C16.9647 19.6534 21.3378 16.9916 23.682 13.0137C24.0506 12.3882 24.0506 11.6119 23.682 10.9864ZM11.9792 17.6569C8.8529 17.6569 6.32238 15.1268 6.32238 12.0001C6.32238 8.87374 8.8524 6.34321 11.9792 6.34321C15.1055 6.34321 17.6361 8.87324 17.6361 12.0001C17.6361 15.1264 15.106 17.6569 11.9792 17.6569ZM16.305 12.0001C16.305 14.3892 14.3683 16.3259 11.9792 16.3259C9.59012 16.3259 7.6534 14.3892 7.6534 12.0001C7.6534 11.2635 7.8377 10.5701 8.16235 9.96305L8.16231 9.96439C8.16231 10.9481 8.9598 11.7456 9.94355 11.7456C10.9273 11.7456 11.7248 10.9481 11.7248 9.96439C11.7248 8.98063 10.9273 8.18314 9.94355 8.18314L9.94222 8.18319C10.5492 7.85854 11.2427 7.67424 11.9792 7.67424C14.3683 7.67424 16.305 9.61096 16.305 12.0001Z" fill="white"/>
</mask>
<g mask="url(#mask0_19_279)">
<rect width="24" height="24" fill="#347AB4"/>
</g>
</svg>
